<mxfile host="10f3ef80-aa72-4877-abc0-d5d2faf6c9c0" modified="2020-09-26T00:45:51.714Z" agent="5.0 (Windows NT 6.1; Win64; x64) AppleWebKit/537.36 (KHTML, like Gecko) Code/1.47.3 Chrome/78.0.3904.130 Electron/7.3.2 Safari/537.36" etag="_H68Ffu88MbksEY5eNdl" version="13.1.3">
    <diagram id="6hGFLwfOUW9BJ-s0fimq" name="relations">
        <mxGraphModel dx="554" dy="480" grid="1" gridSize="10" guides="1" tooltips="1" connect="1" arrows="1" fold="1" page="1" pageScale="1" pageWidth="827" pageHeight="1169" math="0" shadow="0">
            <root>
                <mxCell id="0"/>
                <mxCell id="1" parent="0"/>
                <mxCell id="2" value="" style="group" vertex="1" connectable="0" parent="1">
                    <mxGeometry x="40" y="50" width="380" height="230" as="geometry"/>
                </mxCell>
                <mxCell id="3" value="" style="ellipse;whiteSpace=wrap;html=1;" vertex="1" parent="2">
                    <mxGeometry width="380" height="230" as="geometry"/>
                </mxCell>
                <mxCell id="4" value="" style="ellipse;whiteSpace=wrap;html=1;" vertex="1" parent="2">
                    <mxGeometry x="90" y="75" width="270" height="130" as="geometry"/>
                </mxCell>
                <mxCell id="5" value="" style="ellipse;whiteSpace=wrap;html=1;" vertex="1" parent="2">
                    <mxGeometry x="190" y="120" width="140" height="65" as="geometry"/>
                </mxCell>
                <mxCell id="6" value="Artificial &lt;br&gt;intelligence" style="text;html=1;align=center;verticalAlign=middle;resizable=0;points=[];autosize=1;" vertex="1" parent="2">
                    <mxGeometry x="80" y="35" width="80" height="30" as="geometry"/>
                </mxCell>
                <mxCell id="7" value="Maching&lt;br&gt;learning" style="text;html=1;align=center;verticalAlign=middle;resizable=0;points=[];autosize=1;" vertex="1" parent="2">
                    <mxGeometry x="150" y="90" width="60" height="30" as="geometry"/>
                </mxCell>
                <mxCell id="8" value="Deep&lt;br&gt;learning" style="text;html=1;align=center;verticalAlign=middle;resizable=0;points=[];autosize=1;" vertex="1" parent="2">
                    <mxGeometry x="230" y="137.5" width="60" height="30" as="geometry"/>
                </mxCell>
                <mxCell id="9" value="inclusive" style="text;html=1;align=center;verticalAlign=middle;resizable=0;points=[];autosize=1;fillColor=#ed4040;fontColor=#FFFFFF;" vertex="1" parent="1">
                    <mxGeometry x="200" y="20" width="60" height="20" as="geometry"/>
                </mxCell>
                <mxCell id="10" value="Input/Output" style="text;html=1;align=center;verticalAlign=middle;resizable=0;points=[];autosize=1;fillColor=#ED4040;fontColor=#FFFFFF;" vertex="1" parent="1">
                    <mxGeometry x="600" y="20" width="80" height="20" as="geometry"/>
                </mxCell>
                <mxCell id="11" value="" style="group" vertex="1" connectable="0" parent="1">
                    <mxGeometry x="490" y="50" width="312" height="140" as="geometry"/>
                </mxCell>
                <mxCell id="12" value="" style="group" vertex="1" connectable="0" parent="11">
                    <mxGeometry width="312" height="60" as="geometry"/>
                </mxCell>
                <mxCell id="13" value="Answers" style="text;html=1;align=left;verticalAlign=middle;resizable=0;points=[];autosize=1;" vertex="1" parent="12">
                    <mxGeometry x="252" y="20" width="60" height="20" as="geometry"/>
                </mxCell>
                <mxCell id="14" value="" style="group" vertex="1" connectable="0" parent="12">
                    <mxGeometry width="248" height="60" as="geometry"/>
                </mxCell>
                <mxCell id="15" value="Rules" style="text;html=1;align=right;verticalAlign=middle;resizable=0;points=[];autosize=1;" vertex="1" parent="14">
                    <mxGeometry y="5" width="50" height="20" as="geometry"/>
                </mxCell>
                <mxCell id="16" value="Data" style="text;html=1;align=right;verticalAlign=middle;resizable=0;points=[];autosize=1;" vertex="1" parent="14">
                    <mxGeometry x="10" y="35" width="40" height="20" as="geometry"/>
                </mxCell>
                <mxCell id="17" style="edgeStyle=orthogonalEdgeStyle;rounded=0;orthogonalLoop=1;jettySize=auto;html=1;" edge="1" parent="14" source="18">
                    <mxGeometry relative="1" as="geometry">
                        <mxPoint x="248" y="30" as="targetPoint"/>
                    </mxGeometry>
                </mxCell>
                <mxCell id="18" value="Classical&lt;br&gt;programming" style="rounded=0;whiteSpace=wrap;html=1;" vertex="1" parent="14">
                    <mxGeometry x="88" width="120" height="60" as="geometry"/>
                </mxCell>
                <mxCell id="19" style="edgeStyle=orthogonalEdgeStyle;rounded=0;orthogonalLoop=1;jettySize=auto;html=1;entryX=0;entryY=0.25;entryDx=0;entryDy=0;" edge="1" parent="14" source="15" target="18">
                    <mxGeometry relative="1" as="geometry"/>
                </mxCell>
                <mxCell id="20" style="edgeStyle=orthogonalEdgeStyle;rounded=0;orthogonalLoop=1;jettySize=auto;html=1;entryX=0;entryY=0.75;entryDx=0;entryDy=0;" edge="1" parent="14" source="16" target="18">
                    <mxGeometry relative="1" as="geometry"/>
                </mxCell>
                <mxCell id="21" value="" style="group" vertex="1" connectable="0" parent="11">
                    <mxGeometry y="80" width="312" height="60" as="geometry"/>
                </mxCell>
                <mxCell id="22" value="Rules" style="text;html=1;align=left;verticalAlign=middle;resizable=0;points=[];autosize=1;" vertex="1" parent="21">
                    <mxGeometry x="252" y="20" width="50" height="20" as="geometry"/>
                </mxCell>
                <mxCell id="23" value="" style="group" vertex="1" connectable="0" parent="21">
                    <mxGeometry width="248" height="60" as="geometry"/>
                </mxCell>
                <mxCell id="24" value="Data" style="text;html=1;align=right;verticalAlign=middle;resizable=0;points=[];autosize=1;" vertex="1" parent="23">
                    <mxGeometry x="10" y="5" width="40" height="20" as="geometry"/>
                </mxCell>
                <mxCell id="25" value="Answers" style="text;html=1;align=right;verticalAlign=middle;resizable=0;points=[];autosize=1;" vertex="1" parent="23">
                    <mxGeometry x="-10" y="35" width="60" height="20" as="geometry"/>
                </mxCell>
                <mxCell id="26" style="edgeStyle=orthogonalEdgeStyle;rounded=0;orthogonalLoop=1;jettySize=auto;html=1;" edge="1" parent="23" source="27">
                    <mxGeometry relative="1" as="geometry">
                        <mxPoint x="248" y="30" as="targetPoint"/>
                    </mxGeometry>
                </mxCell>
                <mxCell id="27" value="Maching&lt;br&gt;learning" style="rounded=0;whiteSpace=wrap;html=1;" vertex="1" parent="23">
                    <mxGeometry x="88" width="120" height="60" as="geometry"/>
                </mxCell>
                <mxCell id="28" style="edgeStyle=orthogonalEdgeStyle;rounded=0;orthogonalLoop=1;jettySize=auto;html=1;entryX=0;entryY=0.25;entryDx=0;entryDy=0;" edge="1" parent="23" source="24" target="27">
                    <mxGeometry relative="1" as="geometry"/>
                </mxCell>
                <mxCell id="29" style="edgeStyle=orthogonalEdgeStyle;rounded=0;orthogonalLoop=1;jettySize=auto;html=1;entryX=0;entryY=0.75;entryDx=0;entryDy=0;" edge="1" parent="23" source="25" target="27">
                    <mxGeometry relative="1" as="geometry"/>
                </mxCell>
            </root>
        </mxGraphModel>
    </diagram>
</mxfile>